<?xml version="1.0" encoding="UTF-8" standalone="yes"?>
<svg version="1.2" baseProfile="tiny"
  xmlns="http://www.w3.org/2000/svg"
  xmlns:svg="http://www.w3.org/2000/svg"
  viewBox="0 0 1024 1024">
  <g>
    <linearGradient id="lg1"
      gradientUnits="userSpaceOnUse"
      x1="936" y1="519"
      x2="574" y2="310">
      <stop offset="0" style="stop-color:#DA1718" />
      <stop offset="0.5" style="stop-color:#B44E83" />
      <stop offset="1" style="stop-color:#8F338E" />
    </linearGradient>
    <path fill="url(#lg1)" d="M481.3,471L844.8,76.8l112.6,404.5L604.2,716.8L481.3,471z" />
    <polygon fill="#DC2772" points="420,573 957,819 973,921 876,958 369,671" />
    <linearGradient id="lg2"
      gradientUnits="userSpaceOnUse"
      x1="202" y1="223"
      x2="522" y2="776">
      <stop offset="0" style="stop-color:#5E328E" />
      <stop offset="0.5" style="stop-color:#F29438" />
      <stop offset="1" style="stop-color:#F9BC3C" />
    </linearGradient>
    <path fill="url(#lg2)" d="M41,527.4L455.7,76.8l112.6,404.5L358.4,870.4L41,527.4z" />
    <polygon fill="#FFFFFF" points="732,256 860,256 829,143" />
    <polygon fill="#FFFFFF" points="343,256 471,256 440,143" />
  </g>
  <g>
    <rect x="204" y="204" width="614" height="614" />
    <path display="none" fill="none" stroke="#FFFFFF" stroke-width="10"
      d="M466,550c4,4,10.9,7.9,16,8 c6.4,0.1,10.1-6,17-6c6,0,11,2,17,7" />
    <rect x="317" y="686" fill="#FFFFFF" width="230" height="56" />
    <g>
      <g>
        <path fill="#FFFFFF"
          d="M476.2,418.8c-10,38-40.2,73.3-108.1,73.3c-77.3,0-114.6-53.5-114.6-112.6s41.1-113,117.4-113 c66.3,0,99.3,36.9,105.6,73h-53.2c-4.4-12.4-16.1-32.3-53.1-32.3c-40.5,0-61.5,30.8-61.5,70.3c0,39.8,19.2,74.1,61.8,74.1 c30.8,0,44.3-12,52.7-32.9H476.2z" />
        <path fill="#FFFFFF"
          d="M726.6,418.8c-10,38-40.2,73.3-108.1,73.3c-77.3,0-114.6-53.5-114.6-112.6s41.1-113,117.4-113 c66.3,0,99.3,36.9,105.6,73h-53.2c-4.4-12.4-16.1-32.3-53.1-32.3c-40.5,0-61.5,30.8-61.5,70.3c0,39.8,19.2,74.1,61.8,74.1 c30.8,0,44.3-12,52.7-32.9H726.6z" />
      </g>
    </g>
  </g>
</svg>
